<svg id="Layer_1" data-name="Layer 1" xmlns="http://www.w3.org/2000/svg" viewBox="0 0 122.88 80.8"><defs><style>.cls-1{fill-rule:evenodd;}</style></defs><title>education-group</title><path class="cls-1" d="M51.57,57.1l0,0c3.83,3.45,20.87,6,25.09,8.35a7,7,0,0,1,.7.45c2.9-.75,5.49-1.6,6.85-2.83a8.44,8.44,0,0,0-.46-2.35,14.53,14.53,0,0,1-4.53-10c-2.83.3-3.29-10.92,0-7.12l-.19-.67a2.32,2.32,0,0,1-.72-1.44V34.38l10.93,3.34a14.41,14.41,0,0,0,6.2,0l11.44-3.3.19,7a3.88,3.88,0,0,1-.54,1.67,2.85,2.85,0,0,1-1,.84l0,.12c3.27-2.53,2,8-1.11,7.73a12.52,12.52,0,0,1-3.4,8.52l-.48.48a6.33,6.33,0,0,0-.42,2.32l0,0c2.86,2.58,15.63,4.5,18.78,6.26,4,2.22,3.09,7.56,4,11.51H0c1.18-5.22,0-12.46,5.31-15.38,5.82-3.23,20.54-4.25,25.09-8.35a11.29,11.29,0,0,0-.62-3.13,19.42,19.42,0,0,1-6.05-13.38C20,41,19.33,26,23.73,31c-.16-.56-.31-1.08-.44-1.57A3.39,3.39,0,0,1,22,27.24V17.57l15,4.58a20,20,0,0,0,8.5,0l15.68-4.53.26,9.54a5.3,5.3,0,0,1-.75,2.29,4,4,0,0,1-1.64,1.26c-.08.31-.17.62-.27.95C63.16,28.29,61.41,42.3,57.31,42a16.82,16.82,0,0,1-4.54,11.39l-.65.64a8.41,8.41,0,0,0-.55,3.09Zm60.17-26.75v7.56H112a.33.33,0,0,1,.33.33v2.29a.34.34,0,0,1-.33.34h-.27v.8a.73.73,0,0,1,.6.72h0a.74.74,0,0,1-.74.74h-1.32a.74.74,0,0,1-.74-.74h0a.73.73,0,0,1,.61-.72v-.8h-.27a.34.34,0,0,1-.34-.34V38.24a.34.34,0,0,1,.34-.33h.27V30.85L96.22,35.18a15.64,15.64,0,0,1-7.57,0L73.28,30.59l-1.39-.42c-1.73-.7-1.3-2.37.31-2.75l17.39-5.19a9,9,0,0,1,5.38,0L112,27.36c1.86.45,2.22,2.17.06,2.88l-.36.11ZM67.8,11.69V22.41h.37a.46.46,0,0,1,.46.45V26a.46.46,0,0,1-.46.45H67.8v1.1a1,1,0,0,1,.83,1h0a1,1,0,0,1-1,1H65.8a1,1,0,0,1-1-1h0a1,1,0,0,1,.83-1v-1.1h-.37a.46.46,0,0,1-.46-.45V22.86a.46.46,0,0,1,.46-.45h.37v-10L46.53,18.31a21.53,21.53,0,0,1-10.37,0L15.1,12l-1.9-.57c-2.38-1-1.78-3.25.43-3.77L37.45.57a12.27,12.27,0,0,1,7.37,0l23.4,7c2.54.61,3,3,.08,3.94l-.5.15Z"/></svg>